<svg xmlns="http://www.w3.org/2000/svg" width="127" height="46" viewBox="0 0 127 46">
  <g id="Group_498" data-name="Group 498" transform="translate(-518 -517)">
    <rect id="Rectangle_9" data-name="Rectangle 9" width="127" height="46" rx="23" transform="translate(518 517)" fill="#d1d1d1"/>
    <g id="_003-enter" data-name="003-enter" transform="translate(532.281 528.721)">
      <path id="Path_37" data-name="Path 37" d="M15.637,220.538H.769a.769.769,0,1,1,0-1.538H15.637a.769.769,0,1,1,0,1.538Zm0,0" transform="translate(0 -208.49)" fill="#fff"/>
      <path id="Path_38" data-name="Path 38" d="M224.773,143.372a.769.769,0,0,1-.544-1.314l3.558-3.558-3.558-3.558a.769.769,0,1,1,1.088-1.088l4.1,4.1a.769.769,0,0,1,0,1.088l-4.1,4.1A.763.763,0,0,1,224.773,143.372Zm0,0" transform="translate(-213.237 -127.222)" fill="#fff"/>
      <path id="Path_39" data-name="Path 39" d="M47.023,22.89a11.221,11.221,0,0,1-10.5-7.153.769.769,0,1,1,1.431-.562,9.741,9.741,0,1,0,0-7.129.769.769,0,1,1-1.431-.562,11.279,11.279,0,1,1,10.5,15.405Zm0,0" transform="translate(-34.719 -0.332)" fill="#fff"/>
    </g>
    <text id="Log_in" data-name="Log in" transform="translate(568 545)" fill="#fff" font-size="16" font-family="SegoeUI, Segoe UI"><tspan x="0" y="0">Log in</tspan></text>
  </g>
</svg>
