<svg xmlns="http://www.w3.org/2000/svg" xmlns:xlink="http://www.w3.org/1999/xlink" width="18.385" height="13" viewBox="0 0 18.385 13">
  <defs>
    <clipPath id="clip-path">
      <rect id="Rectangle_2127" data-name="Rectangle 2127" width="18.385" height="13" fill="#bcbcbc"/>
    </clipPath>
  </defs>
  <g id="Group_535" data-name="Group 535" clip-path="url(#clip-path)">
    <path id="Path_654" data-name="Path 654" d="M8.944,108.993l1.739-1.739a9.518,9.518,0,0,0-1.49-.125c-3.72,0-7.033,2.156-9.193,5.516a13.422,13.422,0,0,0,2.452,2.841L5.541,112.4a3.656,3.656,0,0,1,3.4-3.4" transform="translate(0 -106.144)" fill="#bcbcbc"/>
    <path id="Path_655" data-name="Path 655" d="M304.618,2.553,305.871,1.3l-1.3-1.3-11.7,11.7,1.3,1.3,1.681-1.681a9.563,9.563,0,0,0,3.519.7c3.72,0,7.033-2.156,9.193-5.516a12.672,12.672,0,0,0-3.946-3.947m-5.246,7.625a3.607,3.607,0,0,1-1.862-.516l1.1-1.1a2.131,2.131,0,0,0,.758.149A2.206,2.206,0,0,0,301.578,6.5a2.131,2.131,0,0,0-.149-.758l1.1-1.1a3.607,3.607,0,0,1,.516,1.862,3.677,3.677,0,0,1-3.677,3.677" transform="translate(-290.179)" fill="#bcbcbc"/>
  </g>
</svg>
